<svg width="132" height="132" viewBox="0 0 132 132" fill="none" xmlns="http://www.w3.org/2000/svg">
<path d="M60.1595 60.9257L18.7605 102.325C15.7465 105.339 15.7465 110.226 18.7605 113.24C21.7746 116.254 26.6613 116.254 29.6754 113.24L71.0743 71.8405M60.1595 60.9257L71.0743 71.8405M60.1595 60.9257L64.2526 56.8326M71.0743 71.8405L75.1674 67.7474M64.2526 56.8326L64.4864 56.5983C66.6182 54.4672 70.0733 54.4672 72.2045 56.5983L75.4017 59.7955C77.5329 61.9267 77.5329 65.3818 75.4017 67.5131L75.1674 67.7474M64.2526 56.8326L75.1674 67.7474" stroke="#141B34" stroke-width="8.25" stroke-linejoin="round"/>
<path d="M100.307 17.4189C100.879 16.1937 102.621 16.1937 103.193 17.4189L105.348 22.0356C106.296 24.069 107.931 25.7035 109.964 26.6525L114.581 28.8071C115.806 29.3789 115.806 31.1211 114.581 31.6929L109.964 33.8475C107.931 34.7965 106.296 36.431 105.348 38.4644L103.193 43.0811C102.621 44.3063 100.879 44.3063 100.307 43.0811L98.1524 38.4644C97.2037 36.431 95.5691 34.7965 93.5357 33.8475L88.919 31.6929C87.6936 31.1211 87.6936 29.3789 88.919 28.8071L93.5357 26.6525C95.5691 25.7035 97.2037 24.069 98.1524 22.0356L100.307 17.4189Z" stroke="#141B34" stroke-width="8.25" stroke-linejoin="round"/>
<path d="M100.307 77.919C100.879 76.6936 102.621 76.6936 103.193 77.919L105.348 82.5358C106.296 84.5691 107.931 86.2037 109.964 87.1524L114.581 89.3073C115.806 89.8788 115.806 91.6212 114.581 92.1927L109.964 94.3476C107.931 95.2963 106.296 96.9309 105.348 98.9642L103.193 103.581C102.621 104.806 100.879 104.806 100.307 103.581L98.1524 98.9642C97.2037 96.9309 95.5691 95.2963 93.5357 94.3476L88.919 92.1927C87.6936 91.6212 87.6936 89.8788 88.919 89.3073L93.5357 87.1524C95.5691 86.2037 97.2037 84.5691 98.1524 82.5358L100.307 77.919Z" stroke="#141B34" stroke-width="8.25" stroke-linejoin="round"/>
<path d="M39.8071 17.4189C40.3789 16.1937 42.1211 16.1937 42.6929 17.4189L44.8475 22.0356C45.7965 24.069 47.431 25.7035 49.4644 26.6525L54.0811 28.8071C55.3063 29.3789 55.3063 31.1211 54.0811 31.6929L49.4644 33.8475C47.431 34.7965 45.7965 36.431 44.8475 38.4644L42.6929 43.0811C42.1211 44.3063 40.3789 44.3063 39.8071 43.0811L37.6525 38.4644C36.7035 36.431 35.069 34.7965 33.0356 33.8475L28.4189 31.6929C27.1937 31.1211 27.1937 29.3789 28.4189 28.8071L33.0356 26.6525C35.069 25.7035 36.7035 24.069 37.6525 22.0356L39.8071 17.4189Z" stroke="#141B34" stroke-width="8.25" stroke-linejoin="round"/>
</svg>
